<?xml version="1.0" encoding="utf-8"?>
<!-- Generator: Adobe Illustrator 23.0.2, SVG Export Plug-In . SVG Version: 6.00 Build 0)  -->
<svg version="1.1" xmlns="http://www.w3.org/2000/svg" xmlns:xlink="http://www.w3.org/1999/xlink" x="0px" y="0px"
	 viewBox="0 0 2000 2000" style="enable-background:new 0 0 2000 2000;" xml:space="preserve">
<style type="text/css">
	.st0{fill:#FDFEFF;}
	.st1{fill:#FFFFFF;}
	.st2{fill:none;}
</style>
<g id="Calque_1">
</g>
<g id="Calque_2">
	<g>
		<path class="st0" d="M505.84,1142.52v-48.33c0-0.95,0.12-2.18,0.36-3.7c1.52-9.62,7.24-14.42,17.16-14.42h37.32v18.12h-32.64
			c-0.24,0-0.6,0.12-1.08,0.36c-2.08,0.64-3.12,2.28-3.12,4.92v9.36h36.84v18.12h-36.84v9.36c0,3.44,1.56,5.32,4.68,5.64h32.16
			v18.12h-34.8C512.52,1160.07,505.84,1154.22,505.84,1142.52z M558.28,1044.87l-18.96,17.52h-13.08l12.24-17.52H558.28z"/>
		<path class="st0" d="M572.08,1160.07v-48c0-0.8,0.08-1.76,0.24-2.88c1.2-8.08,6.12-12.12,14.76-12.12h22.2
			c8.64,0,13.56,4.04,14.76,12.12c0.16,1.12,0.24,2.08,0.24,2.88v48h-15.96v-42.49c0-0.4-0.04-0.72-0.12-0.96
			c-0.32-2.31-2.04-3.47-5.16-3.47h-9.84c-3.12,0-4.84,1.16-5.16,3.47v43.45H572.08z"/>
		<path class="st0" d="M636.52,1111.83c0-1.04,0.12-2.12,0.36-3.24c1.68-7.68,6.76-11.52,15.24-11.52h21.72
			c8.8,0,13.76,4.18,14.88,12.54c0.08,0.56,0.12,1.43,0.12,2.63v12.54l-36.1,13.87l-0.02,1.05c0,2.87,1.04,4.3,3.12,4.3h32.88v16.08
			h-35.04c-4.16,0-7.32-0.6-9.48-1.8c-5.12-2.8-7.68-7.64-7.68-14.52V1111.83z M672.64,1116.99v-0.6c-0.32-1.28-1.31-2.08-2.96-2.4
			c-0.24-0.08-0.52-0.12-0.83-0.12h-11.03c-2.29,0-3.87,0.8-4.74,2.4c-0.24,0.4-0.36,0.96-0.36,1.68v6.48L672.64,1116.99z"/>
		<path class="st0" d="M700.24,1113.15c0-10.72,5.4-16.08,16.2-16.08h10.8v16.08h-6.96c-2.72,0.4-4.08,1.52-4.08,3.35v43.57h-15.96
			V1113.15z"/>
		<path class="st0" d="M797.8,1080.99c-0.16-2.88,0.74-5.32,2.7-7.32c1.96-2,4.38-3,7.26-3c2.72,0,5.06,0.98,7.02,2.94
			c1.96,1.96,2.94,4.3,2.94,7.02c0,2.8-0.98,5.16-2.94,7.08c-1.96,1.92-4.34,2.88-7.14,2.88c-2.72,0-5-0.92-6.84-2.76
			C798.96,1085.99,797.96,1083.71,797.8,1080.99z M799.84,1160.07v-63h15.96v63H799.84z"/>
		<path class="st0" d="M828.04,1111.83c0-1.04,0.12-2.12,0.36-3.24c1.68-7.68,6.76-11.52,15.24-11.52h21.72
			c8.8,0,13.76,4.18,14.88,12.54c0.08,0.56,0.12,1.43,0.12,2.63v12.54l-36.1,13.87l-0.02,1.05c0,2.87,1.04,4.3,3.12,4.3h32.88v16.08
			H845.2c-4.16,0-7.32-0.6-9.48-1.8c-5.12-2.8-7.68-7.64-7.68-14.52V1111.83z M864.16,1116.99v-0.6c-0.32-1.28-1.31-2.08-2.96-2.4
			c-0.24-0.08-0.52-0.12-0.83-0.12h-11.03c-2.29,0-3.87,0.8-4.74,2.4c-0.24,0.4-0.36,0.96-0.36,1.68v6.48L864.16,1116.99z"/>
		<path class="st0" d="M890.92,1160.07v-16.08h28.55c1.77-0.31,2.81-1.14,3.13-2.48c0.08-0.16,0.12-0.35,0.12-0.59v-1.3
			c0-1.65-0.88-2.68-2.65-3.07h-13.85c-2.41,0-4.7-0.6-6.87-1.8c-5.38-3.04-8.07-6.92-8.07-11.64v-11.76c0-1.12,0.16-2.36,0.48-3.72
			c1.67-7.04,6.65-10.56,14.92-10.56h32l0.36,16.08H910c-0.32,0.08-0.72,0.24-1.2,0.47c-1.2,1.18-1.8,2.01-1.8,2.48v1.42
			c0,1.57,1.27,2.56,3.81,2.95h14.17c3.57,0,6.77,1.44,9.59,4.32c2.82,2.88,4.19,6.12,4.11,9.72v11.52
			c-0.08,2.56-0.82,5.02-2.22,7.38c-1.4,2.36-3.18,4.1-5.34,5.22c-1.84,0.96-4.28,1.44-7.32,1.44H890.92z"/>
		<path class="st0" d="M985.48,1160.07v-84h42c5.28,0,9.6,1.48,12.96,4.44c3.36,2.96,5.04,7.04,5.04,12.24v20.64
			c0,5.04-1.52,9.04-4.56,12c-3.04,2.96-7.08,4.44-12.12,4.44h-25.32v30.24H985.48z M1021.12,1111.35c2.24,0,3.76-0.2,4.56-0.6
			c1.2-0.64,1.8-1.96,1.8-3.96v-8.28c-0.24-2.48-1.8-3.92-4.68-4.32h-19.32v17.16H1021.12z"/>
		<path class="st0" d="M1055.2,1145.91v-34.68c0-0.72,0.12-1.68,0.36-2.88c1.52-7.52,6.68-11.28,15.48-11.28h21.48
			c4.72,0,8.54,1.2,11.46,3.6c2.92,2.4,4.38,5.92,4.38,10.56v34.68c0,4.64-1.46,8.16-4.38,10.56c-2.92,2.4-6.74,3.6-11.46,3.6
			h-21.48c-9.36,0-14.52-3.76-15.48-11.28L1055.2,1145.91z M1074.74,1143.99h14.08c0.87,0,1.69-0.5,2.45-1.49
			c0.75-0.99,1.13-1.97,1.13-2.92v-22.15c0-0.87-0.38-1.8-1.13-2.8c-0.76-0.99-1.57-1.49-2.45-1.49h-14.08
			c-0.95,0-1.79,0.48-2.5,1.43c-0.72,0.95-1.07,1.91-1.07,2.86v22.27c0,0.95,0.36,1.91,1.07,2.86
			C1072.95,1143.52,1073.78,1143.99,1074.74,1143.99z"/>
		<path class="st0" d="M1120.59,1145.07v-48h15.96v43.45c0.32,2.31,2.04,3.47,5.16,3.47h9.84c3.12,0,4.84-1.16,5.16-3.47
			c0.08-0.24,0.12-0.56,0.12-0.96v-42.49h15.96v48c0,0.8-0.08,1.76-0.24,2.88c-1.2,8.08-6.12,12.12-14.76,12.12h-22.2
			c-8.64,0-13.56-4.04-14.76-12.12C1120.67,1146.83,1120.59,1145.87,1120.59,1145.07z"/>
		<path class="st0" d="M1185.03,1113.15c0-10.72,5.4-16.08,16.2-16.08h10.8v16.08h-6.96c-2.72,0.4-4.08,1.52-4.08,3.35v43.57h-15.96
			V1113.15z"/>
		<path class="st0" d="M1250.07,1094.19v-18.12h54v18.12h-18.12v65.88h-18v-65.88H1250.07z"/>
		<path class="st0" d="M1312.11,1145.91v-34.68c0-0.72,0.12-1.68,0.36-2.88c1.52-7.52,6.68-11.28,15.48-11.28h21.48
			c4.72,0,8.54,1.2,11.46,3.6c2.92,2.4,4.38,5.92,4.38,10.56v34.68c0,4.64-1.46,8.16-4.38,10.56c-2.92,2.4-6.74,3.6-11.46,3.6
			h-21.48c-9.36,0-14.52-3.76-15.48-11.28L1312.11,1145.91z M1331.65,1143.99h14.08c0.87,0,1.69-0.5,2.45-1.49
			c0.75-0.99,1.13-1.97,1.13-2.92v-22.15c0-0.87-0.38-1.8-1.13-2.8c-0.76-0.99-1.57-1.49-2.45-1.49h-14.08
			c-0.95,0-1.79,0.48-2.5,1.43c-0.72,0.95-1.07,1.91-1.07,2.86v22.27c0,0.95,0.36,1.91,1.07,2.86
			C1329.86,1143.52,1330.7,1143.99,1331.65,1143.99z"/>
		<path class="st0" d="M1377.51,1145.07v-48h15.96v43.45c0.32,2.31,2.04,3.47,5.16,3.47h9.84c3.12,0,4.84-1.16,5.16-3.47
			c0.08-0.24,0.12-0.56,0.12-0.96v-42.49h15.96v48c0,0.8-0.08,1.76-0.24,2.88c-1.2,8.08-6.12,12.12-14.76,12.12h-22.2
			c-8.64,0-13.56-4.04-14.76-12.12C1377.59,1146.83,1377.51,1145.87,1377.51,1145.07z"/>
		<path class="st0" d="M1441.11,1160.07v-16.08h28.55c1.77-0.31,2.81-1.14,3.13-2.48c0.08-0.16,0.12-0.35,0.12-0.59v-1.3
			c0-1.65-0.88-2.68-2.65-3.07h-13.85c-2.41,0-4.7-0.6-6.87-1.8c-5.38-3.04-8.07-6.92-8.07-11.64v-11.76c0-1.12,0.16-2.36,0.48-3.72
			c1.67-7.04,6.64-10.56,14.92-10.56h32l0.36,16.08h-29.04c-0.32,0.08-0.72,0.24-1.2,0.47c-1.2,1.18-1.8,2.01-1.8,2.48v1.42
			c0,1.57,1.27,2.56,3.81,2.95h14.17c3.57,0,6.77,1.44,9.59,4.32c2.82,2.88,4.19,6.12,4.11,9.72v11.52
			c-0.08,2.56-0.82,5.02-2.22,7.38c-1.4,2.36-3.18,4.1-5.34,5.22c-1.84,0.96-4.28,1.44-7.32,1.44H1441.11z"/>
		<path class="st0" d="M784.6,1100.68c-1.68-1.76-4.84-2.92-9.48-3.49c-0.64-0.08-1.6-0.12-2.88-0.12H751
			c-5.84,0-10.02,1.4-12.54,4.2c-2.52,2.8-3.78,7.16-3.78,13.08v31.2c0,4.48,1.56,8.02,4.68,10.62c3.12,2.6,6.96,3.9,11.52,3.9
			h20.76v3.54c-0.32,2.2-1.71,3.5-4.17,3.9h-32.79v16.08c12.11,0.08,21.22,0.12,27.36,0.12c6.21,0,9.36-0.04,9.44-0.12
			c9,0,14.29-4.45,15.89-13.34c0.16-0.56,0.24-1.47,0.24-2.74v-57.1C787.6,1106.09,786.6,1102.84,784.6,1100.68z M774.27,1125.35
			l-16.85,26.06c-0.09,0.14-0.38,0.59-0.88,0.59c0,0,0,0,0,0c-0.24,0-0.47-0.11-0.62-0.29c-0.26-0.3-0.22-0.69-0.18-0.95l3.12-18.25
			h-10.15c-0.49,0-0.89-0.22-1.09-0.59c-0.2-0.38-0.15-0.83,0.12-1.24l16.39-24.12c0.11-0.15,0.38-0.56,0.88-0.56
			c0.24,0,0.47,0.11,0.63,0.3c0.26,0.31,0.22,0.7,0.17,0.96l-3.06,16.27h10.53c0.49,0,0.89,0.21,1.09,0.59
			C774.57,1124.49,774.54,1124.94,774.27,1125.35z"/>
	</g>
	<g>
		<circle class="st1" cx="892.67" cy="891.91" r="12.16"/>
		<circle class="st1" cx="1049.49" cy="891.91" r="12.16"/>
		
			<ellipse transform="matrix(0.2277 -0.9737 0.9737 0.2277 -99.4051 1438.5592)" class="st1" cx="857.16" cy="781.94" rx="28.53" ry="28.53"/>
		
			<ellipse transform="matrix(0.7071 -0.7071 0.7071 0.7071 -209.9416 843.815)" class="st1" cx="913.6" cy="675.33" rx="12.83" ry="12.83"/>
		
			<ellipse transform="matrix(0.922 -0.3873 0.3873 0.922 -182.0724 446.132)" class="st1" cx="1016.04" cy="674.88" rx="26.12" ry="26.12"/>
		
			<ellipse transform="matrix(0.2199 -0.9755 0.9755 0.2199 102.0487 1637.0657)" class="st1" cx="1074.58" cy="754.73" rx="21.61" ry="21.61"/>
		<circle class="st1" cx="1098.89" cy="705.5" r="8.56"/>
		
			<ellipse transform="matrix(0.9227 -0.3854 0.3854 0.9227 -231.5771 493.6738)" class="st1" cx="1115.55" cy="824.45" rx="15.76" ry="15.76"/>
		<circle class="st1" cx="897.99" cy="722.8" r="8.74"/>
		
			<ellipse transform="matrix(0.1543 -0.988 0.988 0.1543 206.4984 1778.6332)" class="st1" cx="1142.27" cy="768.69" rx="13.96" ry="13.96"/>
		<g>
			<path class="st1" d="M970.63,939.97c-6.15,0-11.14-4.99-11.14-11.14c0-6.15,4.99-11.14,11.14-11.14
				c6.15,0,11.14,4.99,11.14,11.14C981.77,934.98,976.78,939.97,970.63,939.97z"/>
			<path class="st1" d="M996.08,901.82c-2.59-3.49-8.29-3.41-10.12-0.48c-1.58,2.52-1.95,5.61-1.01,8.43
				c2.99,8.99,12.93,43.08-14.32,43.93c-27.25-0.84-17.31-34.93-14.32-43.93c0.94-2.82,0.57-5.91-1.01-8.43
				c-1.83-2.93-7.42-2.92-10.12,0.48c-4.76,5.99-10.81,27.92-18.31,72.45c-2.93,17.37-5.03,34.21-6.49,47.94
				c16.79,4.4,34.4,6.75,52.57,6.75c16.54,0,32.63-1.95,48.04-5.62c-1.47-13.92-3.61-31.22-6.59-49.06
				C1007.04,930.32,1001.01,908.46,996.08,901.82z"/>
			<path class="st1" d="M1031.5,826.47c-8.83,4.19,3,14.11,8.71,19.51c5.7,5.4,45.03,46.83,24.62,62.74
				c-18.88,14.72-33.38-10.66-39.17-21.35c-5.93-10.95-13.45-21.52-18.91-21.13c-13.42,0.98-1.35,23.86-1.35,23.86
				c15.6,31.78,28.91,89.23,36.57,127.03c40.21-14.23,74.71-40.53,99.14-74.56c-16.09-28.43-32.96-50.14-48.96-69.88
				C1071.35,847.05,1043.51,820.77,1031.5,826.47z"/>
			<path class="st1" d="M934.52,866.25c-5.47-0.4-12.98,10.17-18.91,21.13c-5.79,10.69-20.29,36.07-39.17,21.35
				c-20.41-15.91,18.91-57.34,24.62-62.74c5.7-5.4,17.53-15.32,8.71-19.51c-12.01-5.7-39.85,20.58-60.64,46.23
				c-15.31,18.89-31.42,39.59-46.88,66.25c23.7,34.55,57.61,61.53,97.38,76.61c7.7-37.81,20.86-94.12,36.25-125.45
				C935.87,890.11,947.94,867.23,934.52,866.25z"/>
			<path class="st1" d="M970.63,917.68c-6.15,0-11.14,4.99-11.14,11.14c0,6.15,4.99,11.14,11.14,11.14
				c6.15,0,11.14-4.99,11.14-11.14C981.77,922.67,976.78,917.68,970.63,917.68z"/>
		</g>
		<g>
			<path class="st2" d="M986.56,815.91c-1.65-3.37-3.81-6.56-6.41-9.48c-3.75-4.21-7.41-6.69-8.44-7.35l-0.52-0.33
				c-0.18-0.11-0.38-0.17-0.58-0.17c-0.2,0-0.4,0.06-0.58,0.17l-0.52,0.33c-1.05,0.67-4.76,3.17-8.54,7.39
				c-2.64,2.94-4.81,6.14-6.45,9.5c-2.07,4.23-3.31,8.73-3.68,13.38c-0.68,8.39,1.69,16.36,6.51,21.86
				c3.16,3.6,7.05,5.82,11.14,6.39v6.35v1.52v3.95c0,1.38,0.95,2.51,2.12,2.51c1.17,0,2.12-1.12,2.12-2.51v-3.95v-1.52v-6.35
				c4.18-0.6,8.25-2.94,11.43-6.62c2.26-2.62,4.02-5.89,5.1-9.43c1.17-3.84,1.55-7.95,1.13-12.22
				C989.92,824.64,988.64,820.13,986.56,815.91z M985.25,840.13c-0.88,2.95-2.33,5.66-4.18,7.82c-2.34,2.74-5.27,4.54-8.26,5.13
				l-0.01-3.31l9.51-10.04c0.4-0.42,0.62-0.98,0.62-1.57c0-0.59-0.22-1.15-0.63-1.57c-0.41-0.43-0.96-0.65-1.5-0.64
				c-0.54,0-1.09,0.22-1.5,0.66l-6.52,6.88l-0.01-4.09l6.24-6.58c0.82-0.87,0.82-2.28-0.01-3.14c-0.41-0.43-0.96-0.65-1.5-0.64
				c-0.54,0-1.09,0.22-1.5,0.66l-3.25,3.43l-0.02-4.55l4.27-4.51c0.4-0.42,0.62-0.98,0.62-1.57c0-0.59-0.22-1.15-0.63-1.57
				c-0.41-0.43-0.96-0.65-1.5-0.64c-0.54,0-1.09,0.22-1.5,0.66l-1.28,1.35l-0.04-10.52c-0.01-1.38-0.96-2.5-2.13-2.5
				c-1.17,0-2.12,1.13-2.11,2.51l0.04,10.42l-1.2-1.25c-0.42-0.43-0.96-0.65-1.5-0.64c-0.54,0-1.09,0.22-1.5,0.66
				c-0.4,0.42-0.62,0.98-0.62,1.57c0,0.59,0.22,1.15,0.63,1.57l4.22,4.39l0.02,4.55l-3.18-3.31c-0.41-0.43-0.96-0.65-1.5-0.64
				c-0.54,0-1.09,0.22-1.5,0.66c-0.82,0.87-0.82,2.28,0.01,3.14l6.2,6.44l0.01,4.09l-6.48-6.74c-0.4-0.42-0.94-0.65-1.5-0.65
				c-0.57,0-1.1,0.24-1.5,0.66s-0.62,0.98-0.62,1.57c0,0.59,0.22,1.15,0.63,1.57l9.49,9.88l0.01,3.4c-2.91-0.55-5.7-2.23-8.04-4.87
				c-4.03-4.57-6.03-11.29-5.48-18.45c0.31-4.07,1.39-8.02,3.19-11.74c1.45-3,3.38-5.86,5.74-8.51c2.54-2.85,5-4.82,6.53-5.91
				c1.51,1.07,3.95,3,6.47,5.81c2.34,2.61,4.29,5.46,5.77,8.46c1.84,3.72,2.99,7.7,3.41,11.82
				C986.54,833.36,986.23,836.87,985.25,840.13z"/>
			<path class="st2" d="M1015.76,763.73c0-6.96-5.64-12.61-12.61-12.61c-6.96,0-12.61,5.64-12.61,12.61
				c0,6.96,5.64,12.61,12.61,12.61C1010.11,776.34,1015.76,770.7,1015.76,763.73z"/>
			<circle class="st2" cx="1015.83" cy="793.04" r="4.9"/>
			<path class="st1" d="M982.75,817.9c-1.49-3-3.43-5.85-5.77-8.46c-2.52-2.81-4.96-4.74-6.47-5.81c-1.53,1.09-3.99,3.06-6.53,5.91
				c-2.35,2.64-4.28,5.51-5.74,8.51c-1.8,3.72-2.87,7.66-3.19,11.74c-0.55,7.16,1.44,13.89,5.48,18.45
				c2.33,2.64,5.13,4.32,8.04,4.87l-0.01-3.4l-9.49-9.88c-0.4-0.42-0.62-0.98-0.63-1.57c0-0.59,0.22-1.15,0.62-1.57
				s0.93-0.65,1.5-0.66c0.57,0,1.1,0.23,1.5,0.65l6.48,6.74l-0.01-4.09l-6.2-6.44c-0.83-0.86-0.84-2.27-0.01-3.14
				c0.41-0.43,0.95-0.65,1.5-0.66c0.54,0,1.09,0.21,1.5,0.64l3.18,3.31l-0.02-4.55l-4.22-4.39c-0.4-0.42-0.62-0.98-0.63-1.57
				c0-0.59,0.22-1.15,0.62-1.57c0.41-0.43,0.95-0.65,1.5-0.66c0.54,0,1.09,0.21,1.5,0.64l1.2,1.25l-0.04-10.42
				c0-1.38,0.94-2.51,2.11-2.51c1.17,0,2.13,1.12,2.13,2.5l0.04,10.52l1.28-1.35c0.41-0.43,0.95-0.65,1.5-0.66
				c0.54,0,1.09,0.21,1.5,0.64c0.4,0.42,0.62,0.98,0.63,1.57c0,0.59-0.22,1.15-0.62,1.57l-4.27,4.51l0.02,4.55l3.25-3.43
				c0.41-0.43,0.95-0.65,1.5-0.66c0.54,0,1.09,0.21,1.5,0.64c0.83,0.86,0.84,2.27,0.01,3.14l-6.24,6.58l0.01,4.09l6.52-6.88
				c0.41-0.43,0.95-0.65,1.5-0.66c0.54,0,1.09,0.21,1.5,0.64c0.4,0.42,0.62,0.98,0.63,1.57c0,0.59-0.22,1.15-0.62,1.57l-9.51,10.04
				l0.01,3.31c2.99-0.59,5.92-2.39,8.26-5.13c1.85-2.16,3.29-4.87,4.18-7.82c0.98-3.26,1.28-6.77,0.91-10.42
				C985.75,825.59,984.6,821.62,982.75,817.9z"/>
			<path class="st1" d="M970.63,722.31c-34.78,0-62.97,28.19-62.97,62.97c0,20.23,9.58,38.15,24.42,49.63
				c9.99,7.73,15.87,19.69,15.87,32.32v0.04c0,11.11,9,20.11,20.11,20.11h5.16c11.11,0,20.11-9,20.11-20.11v-0.04
				c0-12.65,5.87-24.58,15.87-32.32c14.84-11.48,24.42-29.4,24.42-49.63C1033.6,750.5,1005.41,722.31,970.63,722.31z M989.25,841.53
				c-1.08,3.55-2.84,6.81-5.1,9.43c-3.17,3.68-7.25,6.02-11.43,6.62v6.35v1.52v3.95c0,1.38-0.95,2.51-2.12,2.51
				c-1.17,0-2.12-1.12-2.12-2.51v-3.95v-1.52v-6.35c-4.09-0.57-7.99-2.79-11.14-6.39c-4.82-5.5-7.19-13.46-6.51-21.86
				c0.38-4.65,1.62-9.15,3.68-13.38c1.65-3.37,3.82-6.56,6.45-9.5c3.79-4.22,7.5-6.72,8.54-7.39l0.52-0.33
				c0.18-0.11,0.38-0.17,0.58-0.17c0.2,0,0.4,0.06,0.58,0.17l0.52,0.33c1.03,0.66,4.69,3.14,8.44,7.35c2.6,2.92,4.76,6.11,6.41,9.48
				c2.07,4.22,3.36,8.73,3.82,13.41C990.8,833.58,990.42,837.69,989.25,841.53z M1003.15,776.34c-6.96,0-12.61-5.64-12.61-12.61
				c0-6.96,5.64-12.61,12.61-12.61c6.96,0,12.61,5.64,12.61,12.61C1015.76,770.7,1010.11,776.34,1003.15,776.34z M1015.83,797.94
				c-2.71,0-4.9-2.19-4.9-4.9c0-2.71,2.19-4.9,4.9-4.9c2.71,0,4.9,2.19,4.9,4.9C1020.73,795.74,1018.53,797.94,1015.83,797.94z"/>
		</g>
	</g>
</g>
</svg>
